<svg width="82" height="118" viewBox="0 0 82 118" fill="none" xmlns="http://www.w3.org/2000/svg">
<circle cx="41" cy="39" r="37.8918" fill="#F5F5F5" stroke="#F2F2F2"/>
<path fill-rule="evenodd" clip-rule="evenodd" d="M41 23.0049C41.8835 23.0049 42.5997 23.7211 42.5997 24.6046L42.5997 37.7097L55.7048 37.7096C56.5883 37.7096 57.3045 38.4258 57.3045 39.3093C57.3045 40.1927 56.5883 40.9089 55.7048 40.9089L42.5998 40.909L42.5998 54.0139C42.5998 54.8974 41.8836 55.6136 41.0002 55.6136C40.1167 55.6136 39.4005 54.8974 39.4005 54.0139L39.4004 40.909L26.2953 40.9089C25.4119 40.9089 24.6957 40.1927 24.6957 39.3092C24.6957 38.4258 25.4119 37.7096 26.2953 37.7096L39.4004 37.7097L39.4003 24.6046C39.4003 23.7211 40.1165 23.0049 41 23.0049Z" fill="#999CA0"/>
<path d="M9.088 111.392L4.72 100.192H6.576L11.056 111.392H9.088ZM0.144 111.392L4.608 100.192H6.48L2.112 111.392H0.144ZM2.24 108.64V106.992H8.944V108.64H2.24ZM17.8149 111.392L17.7349 109.904V100.192H19.5109V111.392H17.8149ZM15.2069 111.584C14.4815 111.584 13.8469 111.413 13.3029 111.072C12.7695 110.72 12.3482 110.229 12.0389 109.6C11.7402 108.971 11.5909 108.235 11.5909 107.392C11.5909 106.539 11.7402 105.803 12.0389 105.184C12.3482 104.555 12.7695 104.069 13.3029 103.728C13.8469 103.376 14.4815 103.2 15.2069 103.2C15.8789 103.2 16.4549 103.376 16.9349 103.728C17.4255 104.069 17.7989 104.555 18.0549 105.184C18.3109 105.803 18.4389 106.539 18.4389 107.392C18.4389 108.235 18.3109 108.971 18.0549 109.6C17.7989 110.229 17.4255 110.72 16.9349 111.072C16.4549 111.413 15.8789 111.584 15.2069 111.584ZM15.6549 109.952C16.0602 109.952 16.4175 109.845 16.7269 109.632C17.0469 109.408 17.2922 109.104 17.4629 108.72C17.6442 108.336 17.7349 107.893 17.7349 107.392C17.7349 106.891 17.6442 106.448 17.4629 106.064C17.2922 105.68 17.0469 105.381 16.7269 105.168C16.4175 104.955 16.0549 104.848 15.6389 104.848C15.2122 104.848 14.8335 104.955 14.5029 105.168C14.1722 105.381 13.9109 105.68 13.7189 106.064C13.5375 106.448 13.4415 106.891 13.4309 107.392C13.4415 107.893 13.5375 108.336 13.7189 108.72C13.9109 109.104 14.1722 109.408 14.5029 109.632C14.8442 109.845 15.2282 109.952 15.6549 109.952ZM27.268 111.392L27.188 109.904V100.192H28.964V111.392H27.268ZM24.66 111.584C23.9347 111.584 23.3 111.413 22.756 111.072C22.2227 110.72 21.8013 110.229 21.492 109.6C21.1933 108.971 21.044 108.235 21.044 107.392C21.044 106.539 21.1933 105.803 21.492 105.184C21.8013 104.555 22.2227 104.069 22.756 103.728C23.3 103.376 23.9347 103.2 24.66 103.2C25.332 103.2 25.908 103.376 26.388 103.728C26.8787 104.069 27.252 104.555 27.508 105.184C27.764 105.803 27.892 106.539 27.892 107.392C27.892 108.235 27.764 108.971 27.508 109.6C27.252 110.229 26.8787 110.72 26.388 111.072C25.908 111.413 25.332 111.584 24.66 111.584ZM25.108 109.952C25.5133 109.952 25.8707 109.845 26.18 109.632C26.5 109.408 26.7453 109.104 26.916 108.72C27.0973 108.336 27.188 107.893 27.188 107.392C27.188 106.891 27.0973 106.448 26.916 106.064C26.7453 105.68 26.5 105.381 26.18 105.168C25.8707 104.955 25.508 104.848 25.092 104.848C24.6653 104.848 24.2867 104.955 23.956 105.168C23.6253 105.381 23.364 105.68 23.172 106.064C22.9907 106.448 22.8947 106.891 22.884 107.392C22.8947 107.893 22.9907 108.336 23.172 108.72C23.364 109.104 23.6253 109.408 23.956 109.632C24.2973 109.845 24.6813 109.952 25.108 109.952ZM36.8205 107.52V105.808H39.3005C39.8338 105.808 40.2712 105.627 40.6125 105.264C40.9538 104.901 41.1245 104.432 41.1245 103.856C41.1245 103.461 41.0338 103.12 40.8525 102.832C40.6818 102.533 40.4418 102.299 40.1325 102.128C39.8232 101.957 39.4658 101.877 39.0605 101.888H36.8205V100.192L39.0925 100.176C39.8605 100.176 40.5378 100.336 41.1245 100.656C41.7112 100.965 42.1698 101.397 42.5005 101.952C42.8312 102.496 42.9965 103.131 42.9965 103.856C42.9965 104.56 42.8418 105.189 42.5325 105.744C42.2232 106.299 41.7912 106.736 41.2365 107.056C40.6925 107.365 40.0578 107.52 39.3325 107.52H36.8205ZM35.1405 111.392V100.192H36.9965V111.392H35.1405ZM45.4416 107.136C45.4416 106.272 45.607 105.563 45.9376 105.008C46.2683 104.453 46.695 104.043 47.2176 103.776C47.751 103.499 48.3056 103.36 48.8816 103.36V105.072C48.391 105.072 47.927 105.141 47.4896 105.28C47.063 105.408 46.7163 105.621 46.4496 105.92C46.183 106.219 46.0496 106.613 46.0496 107.104L45.4416 107.136ZM44.2576 111.392V103.392H46.0496V111.392H44.2576ZM53.7501 111.584C52.9501 111.584 52.2355 111.408 51.6061 111.056C50.9875 110.693 50.5021 110.197 50.1501 109.568C49.7981 108.939 49.6221 108.213 49.6221 107.392C49.6221 106.571 49.7928 105.845 50.1341 105.216C50.4861 104.587 50.9715 104.096 51.5901 103.744C52.2088 103.381 52.9181 103.2 53.7181 103.2C54.5181 103.2 55.2275 103.381 55.8461 103.744C56.4648 104.096 56.9448 104.587 57.2861 105.216C57.6381 105.845 57.8141 106.571 57.8141 107.392C57.8141 108.213 57.6435 108.939 57.3021 109.568C56.9608 110.197 56.4808 110.693 55.8621 111.056C55.2435 111.408 54.5395 111.584 53.7501 111.584ZM53.7501 109.936C54.1875 109.936 54.5768 109.829 54.9181 109.616C55.2595 109.392 55.5261 109.093 55.7181 108.72C55.9101 108.336 56.0061 107.893 56.0061 107.392C56.0061 106.891 55.9048 106.453 55.7021 106.08C55.5101 105.696 55.2435 105.397 54.9021 105.184C54.5608 104.96 54.1661 104.848 53.7181 104.848C53.2701 104.848 52.8755 104.955 52.5341 105.168C52.1928 105.381 51.9261 105.68 51.7341 106.064C51.5421 106.448 51.4461 106.891 51.4461 107.392C51.4461 107.893 51.5421 108.336 51.7341 108.72C51.9368 109.093 52.2088 109.392 52.5501 109.616C52.9021 109.829 53.3021 109.936 53.7501 109.936ZM60.167 111.392V102.544C60.167 101.701 60.375 101.056 60.791 100.608C61.2177 100.149 61.8577 99.9198 62.711 99.9198C62.9883 99.9198 63.2817 99.9678 63.591 100.064C63.911 100.149 64.215 100.267 64.503 100.416L63.847 101.744C63.6443 101.648 63.463 101.579 63.303 101.536C63.1537 101.493 63.0203 101.472 62.903 101.472C62.583 101.472 62.343 101.579 62.183 101.792C62.0337 101.995 61.959 102.331 61.959 102.8V111.392H60.167ZM58.791 104.864V103.392H64.055V104.864H58.791ZM65.6196 111.392L65.6356 103.392H67.4116L67.3956 111.392H65.6196ZM66.5156 101.872C66.2276 101.872 65.977 101.771 65.7636 101.568C65.561 101.355 65.4596 101.104 65.4596 100.816C65.4596 100.528 65.561 100.283 65.7636 100.08C65.977 99.8772 66.2276 99.7758 66.5156 99.7758C66.8036 99.7758 67.049 99.8772 67.2516 100.08C67.465 100.283 67.5716 100.528 67.5716 100.816C67.5716 101.104 67.465 101.355 67.2516 101.568C67.049 101.771 66.8036 101.872 66.5156 101.872ZM69.5076 111.392V100.192H71.2996V111.392H69.5076ZM76.8569 111.584C76.0782 111.584 75.3849 111.408 74.7769 111.056C74.1795 110.693 73.7049 110.197 73.3529 109.568C73.0115 108.939 72.8409 108.213 72.8409 107.392C72.8409 106.571 73.0169 105.845 73.3689 105.216C73.7209 104.587 74.2009 104.096 74.8089 103.744C75.4275 103.381 76.1315 103.2 76.9209 103.2C77.6355 103.2 78.2755 103.387 78.8409 103.76C79.4169 104.123 79.8755 104.651 80.2169 105.344C80.5582 106.037 80.7289 106.864 80.7289 107.824H78.9209C78.9209 107.131 78.8355 106.56 78.6649 106.112C78.5049 105.664 78.2702 105.333 77.9609 105.12C77.6622 104.896 77.2942 104.784 76.8569 104.784C76.3982 104.784 76.0035 104.885 75.6729 105.088C75.3422 105.291 75.0915 105.589 74.9209 105.984C74.7502 106.368 74.6649 106.853 74.6649 107.44C74.6649 107.963 74.7662 108.411 74.9689 108.784C75.1822 109.157 75.4649 109.445 75.8169 109.648C76.1795 109.84 76.5795 109.936 77.0169 109.936C77.4969 109.936 77.8915 109.829 78.2009 109.616C78.5102 109.392 78.7502 109.109 78.9209 108.768L80.5689 109.472C80.3449 109.899 80.0569 110.272 79.7049 110.592C79.3635 110.912 78.9529 111.157 78.4729 111.328C78.0035 111.499 77.4649 111.584 76.8569 111.584ZM74.0249 107.824V106.4H79.7849V107.824H74.0249Z" fill="#858585"/>
</svg>
